HIERARCHY
ROOT hip
{
  OFFSET 0 0 0
  CHANNELS 6 Xposition Yposition Zposition Zrotation Yrotation Xrotation
  JOINT abdomen
  {
    OFFSET 0 20.6881 -0.73152
    CHANNELS 3 Zrotation Xrotation Yrotation
    JOINT chest
    {
      OFFSET 0 11.7043 -0.48768
      CHANNELS 3 Zrotation Xrotation Yrotation
      JOINT neck
      {
        OFFSET 0 22.1894 -2.19456
        CHANNELS 3 Zrotation Xrotation Yrotation
        JOINT head
        {
          OFFSET -0.24384 7.07133 1.2192
          CHANNELS 3 Zrotation Xrotation Yrotation
          JOINT leftEye
          {
            OFFSET 4.14528 8.04674 8.04672
            CHANNELS 3 Zrotation Xrotation Yrotation
            End Site
            {
              OFFSET 1 0 0
            }
          }
          JOINT rightEye
          {
            OFFSET -3.6576 8.04674 8.04672
            CHANNELS 3 Zrotation Xrotation Yrotation
            End Site
            {
              OFFSET 1 0 0
            }
          }
        }
      }
      JOINT rCollar
      {
        OFFSET -2.68224 19.2634 -4.8768
        CHANNELS 3 Zrotation Xrotation Yrotation
        JOINT rShldr
        {
          OFFSET -8.77824 -1.95073 1.46304
          CHANNELS 3 Zrotation Xrotation Yrotation
          JOINT rForeArm
          {
            OFFSET -28.1742 -1.7115 0.48768
            CHANNELS 3 Zrotation Xrotation Yrotation
            JOINT rHand
            {
              OFFSET -22.5879 0.773209 7.07136
              CHANNELS 3 Zrotation Xrotation Yrotation
              JOINT rThumb1
              {
                OFFSET -1.2192 -0.487915 3.41376
                CHANNELS 3 Zrotation Xrotation Yrotation
                JOINT rThumb2
                {
                  OFFSET -3.37035 -0.52449 3.41376
                  CHANNELS 3 Zrotation Xrotation Yrotation
                  End Site
                  {
                    OFFSET -1.78271 -1.18214 1.43049
                  }
                }
              }
              JOINT rIndex1
              {
                OFFSET -7.75947 0.938293 5.60832
                CHANNELS 3 Zrotation Xrotation Yrotation
                JOINT rIndex2
                {
                  OFFSET -2.54057 -0.884171 1.56538
                  CHANNELS 3 Zrotation Xrotation Yrotation
                  End Site
                  {
                    OFFSET -1.62519 -0.234802 1.16502
                  }
                }
              }
              JOINT rMid1
              {
                OFFSET -8.24714 1.18213 3.41376
                CHANNELS 3 Zrotation Xrotation Yrotation
                JOINT rMid2
                {
                  OFFSET -3.10165 -0.590103 1.0647
                  CHANNELS 3 Zrotation Xrotation Yrotation
                  End Site
                  {
                    OFFSET -2.48547 -0.328903 0.83742
                  }
                }
              }
              JOINT rRing1
              {
                OFFSET -8.82822 0.546677 1.51678
                CHANNELS 3 Zrotation Xrotation Yrotation
                JOINT rRing2
                {
                  OFFSET -2.60934 -0.819778 -0.0198488
                  CHANNELS 3 Zrotation Xrotation Yrotation
                  End Site
                  {
                    OFFSET -2.33842 -0.294052 0.168128
                  }
                }
              }
              JOINT rPinky1
              {
                OFFSET -8.27202 -0.0477905 -0.4584
                CHANNELS 3 Zrotation Xrotation Yrotation
                JOINT rPinky2
                {
                  OFFSET -1.82734 -0.647385 -0.700984
                  CHANNELS 3 Zrotation Xrotation Yrotation
                  End Site
                  {
                    OFFSET -1.69225 -0.51767 -0.607171
                  }
                }
              }
            }
          }
        }
      }
      JOINT lCollar
      {
        OFFSET 2.68224 19.2634 -4.8768
        CHANNELS 3 Zrotation Xrotation Yrotation
        JOINT lShldr
        {
          OFFSET 8.77824 -1.95073 1.46304
          CHANNELS 3 Zrotation Xrotation Yrotation
          JOINT lForeArm
          {
            OFFSET 28.1742 -1.7115 0.48768
            CHANNELS 3 Zrotation Xrotation Yrotation
            JOINT lHand
            {
              OFFSET 22.5879 0.773209 7.07136
              CHANNELS 3 Zrotation Xrotation Yrotation
              JOINT lThumb1
              {
                OFFSET 1.2192 -0.487915 3.41376
                CHANNELS 3 Zrotation Xrotation Yrotation
                JOINT lThumb2
                {
                  OFFSET 3.37035 -0.52449 3.41376
                  CHANNELS 3 Zrotation Xrotation Yrotation
                  End Site
                  {
                    OFFSET 1.78271 -1.18214 1.43049
                  }
                }
              }
              JOINT lIndex1
              {
                OFFSET 7.75947 0.938293 5.60832
                CHANNELS 3 Zrotation Xrotation Yrotation
                JOINT lIndex2
                {
                  OFFSET 2.54057 -0.884171 1.56538
                  CHANNELS 3 Zrotation Xrotation Yrotation
                  End Site
                  {
                    OFFSET 1.62519 -0.234802 1.16502
                  }
                }
              }
              JOINT lMid1
              {
                OFFSET 8.24714 1.18213 3.41376
                CHANNELS 3 Zrotation Xrotation Yrotation
                JOINT lMid2
                {
                  OFFSET 3.10165 -0.590103 1.0647
                  CHANNELS 3 Zrotation Xrotation Yrotation
                  End Site
                  {
                    OFFSET 2.48547 -0.328903 0.83742
                  }
                }
              }
              JOINT lRing1
              {
                OFFSET 8.82822 0.546677 1.51678
                CHANNELS 3 Zrotation Xrotation Yrotation
                JOINT lRing2
                {
                  OFFSET 2.60934 -0.819778 -0.0198488
                  CHANNELS 3 Zrotation Xrotation Yrotation
                  End Site
                  {
                    OFFSET 2.33842 -0.294052 0.168128
                  }
                }
              }
              JOINT lPinky1
              {
                OFFSET 8.27202 -0.0477905 -0.4584
                CHANNELS 3 Zrotation Xrotation Yrotation
                JOINT lPinky2
                {
                  OFFSET 1.82734 -0.647385 -0.700984
                  CHANNELS 3 Zrotation Xrotation Yrotation
                  End Site
                  {
                    OFFSET 1.69225 -0.51767 -0.607171
                  }
                }
              }
            }
          }
        }
      }
    }
  }
  JOINT rButtock
  {
    OFFSET -8.77824 4.35084 1.2192
    CHANNELS 3 Zrotation Xrotation Yrotation
    JOINT rThigh
    {
      OFFSET 0 -1.70687 -2.19456
      CHANNELS 3 Zrotation Xrotation Yrotation
      JOINT rShin
      {
        OFFSET 0 -36.8199 0.73152
        CHANNELS 3 Zrotation Xrotation Yrotation
        JOINT rFoot
        {
          OFFSET 0.73152 -45.1104 -5.12064
          CHANNELS 3 Zrotation Xrotation Yrotation
          End Site
          {
            OFFSET -1.1221 -3.69964 12.103
          }
        }
      }
    }
  }
  JOINT lButtock
  {
    OFFSET 8.77824 4.35084 1.2192
    CHANNELS 3 Zrotation Xrotation Yrotation
    JOINT lThigh
    {
      OFFSET 0 -1.70687 -2.19456
      CHANNELS 3 Zrotation Xrotation Yrotation
      JOINT lShin
      {
        OFFSET 0 -36.8199 0.73152
        CHANNELS 3 Zrotation Xrotation Yrotation
        JOINT lFoot
        {
          OFFSET -0.73152 -45.1104 -5.12064
          CHANNELS 3 Zrotation Xrotation Yrotation
          End Site
          {
            OFFSET 1.1221 -3.69964 12.103
          }
        }
      }
    }
  }
}
MOTION
Frames:	4
Frame Time:	0.03333
0.0 0.0 0.0 0.0 0.0 0.0 0.0 0.0 0.0 0.0 0.0 0.0 0.0 0.0 0.0 0.0 0.0 0.0 0.0 0.0 0.0 0.0 0.0 0.0 0.0 0.0 0.0 0.0 0.0 0.0 0.0 0.0 0.0 0.0 0.0 0.0 0.0 0.0 0.0 0.0 0.0 0.0 0.0 0.0 0.0 0.0 0.0 0.0 0.0 0.0 0.0 0.0 0.0 0.0 0.0 0.0 0.0 0.0 0.0 0.0 0.0 0.0 0.0 0.0 0.0 0.0 0.0 0.0 0.0 0.0 0.0 0.0 0.0 0.0 0.0 0.0 0.0 0.0 0.0 0.0 0.0 0.0 0.0 0.0 0.0 0.0 0.0 0.0 0.0 0.0 0.0 0.0 0.0 0.0 0.0 0.0 0.0 0.0 0.0 0.0 0.0 0.0 0.0 0.0 0.0 0.0 0.0 0.0 0.0 0.0 0.0 0.0 0.0 0.0 0.0 0.0 0.0 0.0 0.0 0.0 0.0 0.0 0.0 0.0 0.0 0.0 0.0 0.0 0.0 0.0 0.0 0.0
-0.0289 62.0076 0.0584 179.952458 8.355773 178.951486 -0.634285 3.783662 6.166408 10.436018 1.408303 -66.888928 -4.653267 -19.313991 -12.397731 22.711601 -31.037676 27.871316 -153.416277 10.326662 41.863735 -120.981377 -8.854647 -15.579116 58.870975 36.767323 21.974949 15.869227 -22.04688 4.486242 -174.001828 60.827541 -25.413936 -9.145576 44.900894 -67.563689 179.337178 2.342071 53.593678 -170.731792 15.882486 -89.665978 -60.943565 -2.931383 -117.77936 166.32123 -5.533913 -159.795078 -44.195956 -1.684745 -112.851398 11.329275 23.2104 0.748684 -86.065178 14.116585 -102.279952 4.515806 -49.174891 -3.585486 102.269611 21.840306 -56.265306 -154.624325 37.012225 -139.280101 85.820868 -55.386318 -170.613944 -8.467221 -8.285413 -4.8504 178.233014 5.99733 24.580343 3.692497 30.993101 30.955087 4.675191 -9.431672 -7.962208 -178.168007 -48.675968 -133.655284 -14.909253 -25.459657 -20.884263 -8.236608 -34.021689 -23.735787 26.965378 -13.181491 3.986516 -108.824893 -47.388566 -66.724938 -91.464129 -14.329311 75.101604 -172.872378 54.578824 154.037814 -4.246764 5.930621 103.347207 148.723929 10.10748 147.827592 11.926711 -46.2984 14.571516 -2.253575 49.183415 0.450523 6.250502 3.077528 131.261957 76.152653 40.396425 -81.495139 54.414528 3.152921 92.486146 1.506841 56.373176 2.953218 -5.746934 -1.251356 -104.555084 28.722092 77.067026 -36.558305
-0.9313999999999999 60.0413 -2.2873 -71.444574 -76.497379 73.829644 7.878631 9.805452 82.25987 -5.150001 -0.664026 -77.962984 -8.1032 23.584268 -89.03909 34.071508 12.875948 97.508946 -3.751937 -0.107439 3.279346 -8.951971 1.202109 -15.26613 -149.552398 17.473436 150.711837 46.320477 -44.234181 86.972877 128.628471 65.662515 102.424114 -157.027149 26.611568 131.666989 18.614818 -19.278824 0.281736 -142.666601 -13.73352 121.981996 -146.846446 -26.747074 132.405173 -145.929009 -23.23788 117.570388 13.199729 -27.428772 -21.783086 151.307056 -39.088605 115.821068 6.013261 -6.096249 9.721115 -65.318116 -50.505953 -88.426004 -167.399378 17.763241 -131.091406 -14.217496 50.328809 26.741816 140.469926 -76.286249 162.213707 -19.53064 -7.432506 36.24334 -91.297652 -82.770953 -12.308709 -155.376388 -24.389862 -135.183148 24.406848 12.268484 -11.014945 123.001037 -6.246197 -92.571711 73.959957 29.591251 -51.886651 41.92724 45.366493 -27.716686 2.412832 -16.958374 -8.687506 -0.073537 19.465537 1.419402 16.18075 -74.427516 13.405909 -62.78657 72.414171 41.741615 141.07046 -11.21623 139.785102 136.471418 65.296807 158.726298 86.761107 41.929019 40.554253 -113.878868 46.993668 49.594326 59.565044 1.996416 90.073739 -16.484626 39.036632 174.156198 -25.630766 4.494667 -24.730341 97.672597 -22.355734 49.121964 -16.77789 76.001977 108.928379 -24.460456 60.863789 -69.81805
-1.2276 52.9463 -3.2474999999999996 -69.256655 -73.924755 71.42402 8.225212 8.983868 18.052764 2.679441 -6.474321 -15.243019 -0.959036 23.688848 108.022527 -32.671893 0.872472 -93.142183 -17.912103 -7.029225 42.58335 4.402416 -0.392521 -10.185144 -157.681572 -5.336677 152.14725 109.095687 -30.947791 134.704004 -117.025701 -6.064831 31.894684 177.473382 -52.712666 148.390129 -171.018234 -23.537962 85.292145 58.100168 -49.059539 45.352716 34.081595 -20.194244 -14.726378 -33.175665 -2.495608 13.897287 -39.700641 79.189453 40.052259 -9.992435 -57.817072 -9.383158 -139.628844 1.002232 175.502541 19.786886 23.989075 4.369423 -150.914445 -31.174671 -126.877757 -63.811515 -69.705438 -28.796934 -1.473194 -33.911958 12.561913 -53.930738 17.023874 -5.960847 -165.630421 -7.317782 -104.433665 -152.711937 -18.798968 -136.552342 175.710021 -7.756795 -85.654786 79.614804 5.040372 -26.90526 15.332236 2.95996 -13.41511 -4.753356 -53.644178 36.128228 157.29176 3.593855 -139.225953 138.622402 34.212408 -147.66594 76.335022 29.346924 -79.905544 -45.126075 12.94978 8.36226 9.476675 21.193816 -16.278693 124.557993 -37.636749 117.265838 -165.070315 82.550135 -10.571596 94.150244 65.694495 -172.615459 51.457982 -12.787696 119.173351 -99.850228 85.632453 -150.185959 7.690017 6.420038 13.370224 84.216755 -64.063347 -4.953897 -87.793866 1.495402 -32.775327 -62.235699 75.462222 145.851652
